<?xml version="1.0" encoding="UTF-8" standalone="no"?> <!-- Created with Vectornator for iOS (http://vectornator.io/) --><!DOCTYPE svg PUBLIC "-//W3C//DTD SVG 1.1//EN" "http://www.w3.org/Graphics/SVG/1.1/DTD/svg11.dtd">
<svg height="100%" style="fill-rule:evenodd;clip-rule:evenodd;stroke-linecap:round;stroke-linejoin:round;" xmlns:xlink="http://www.w3.org/1999/xlink" xmlns="http://www.w3.org/2000/svg" xml:space="preserve" width="100%" xmlns:vectornator="http://vectornator.io" version="1.1" viewBox="0 0 792 612">
<metadata>
<vectornator:setting key="DimensionsVisible" value="1"/>
<vectornator:setting key="PencilOnly" value="0"/>
<vectornator:setting key="SnapToPoints" value="0"/>
<vectornator:setting key="OutlineMode" value="0"/>
<vectornator:setting key="CMYKEnabledKey" value="0"/>
<vectornator:setting key="RulersVisible" value="1"/>
<vectornator:setting key="SnapToEdges" value="0"/>
<vectornator:setting key="GuidesVisible" value="1"/>
<vectornator:setting key="DisplayWhiteBackground" value="0"/>
<vectornator:setting key="doHistoryDisabled" value="0"/>
<vectornator:setting key="SnapToGuides" value="0"/>
<vectornator:setting key="TimeLapseWatermarkDisabled" value="0"/>
<vectornator:setting key="Units" value="Inches"/>
<vectornator:setting key="DynamicGuides" value="0"/>
<vectornator:setting key="IsolateActiveLayer" value="0"/>
<vectornator:setting key="SnapToGrid" value="0"/>
</metadata>
<defs>
<linearGradient y1="181.646" id="LinearGradient" x1="523.976" y2="181.646" x2="525.907" gradientUnits="userSpaceOnUse" gradientTransform="matrix(1 0 0 1 100.248 62.4007)">
<stop stop-opacity="0.578283" stop-color="#19dbd4" offset="0"/>
<stop stop-color="#ffffff" offset="1"/>
</linearGradient>
<linearGradient y1="287.89" id="LinearGradient_2" x1="125.561" y2="287.89" x2="485.824" gradientUnits="userSpaceOnUse" gradientTransform="matrix(-0.382121 -0.924112 0.924112 -0.382121 241.187 616.339)">
<stop stop-opacity="0.578283" stop-color="#19dbd4" offset="0"/>
<stop stop-color="#ffffff" offset="1"/>
</linearGradient>
</defs>
<g id="Layer 1" vectornator:layerName="Layer 1">
<path d="M12.1983-243.891C28.019-227.966-1.86382-206.716-12.5934-226.351C-15.1544-228.982-17.7153-231.614-20.2763-234.245C-23.6183-238.231-28.6117-241.391-30.2909-246.6C-36.4309-261.75-13.7651-274.055-4.26516-260.807C-2.43589-258.928-0.60662-257.048+1.22265-255.168C4.88119-251.409+8.53972-247.65+12.1983-243.891" opacity="1" fill="#ffffff"/>
<path d="M-1.10074-260.319C11.4554-244.526-16.2056-226.045-26.0639-243.634C-27.2895-245.312-28.5151-246.991-29.7407-248.669C-32.7464-253.871-38.0386-258.018-39.5505-264.05C-44.3317-279.908-20.0404-289.944-12.1312-275.424C-10.9056-273.746-9.68001-272.068-8.4544-270.389C-6.00318-267.033-3.55196-263.676-1.10074-260.319" opacity="1" fill="#ffffff"/>
</g>
<g id="Layer 3" vectornator:layerName="Layer 3">
<path stroke="#ffffff" stroke-width="9.17445" d="M-19.0297-12.9104L885.278-12.9104L885.278+624.91L-19.0297+624.91L-19.0297-12.9104Z" fill="#141414" stroke-linecap="round" opacity="1" stroke-linejoin="round"/>
<path stroke="#ffffff" stroke-width="1.7793" d="M70.0244+269.298C70.0244+263.963+74.2406+259.639+79.4415+259.639C84.6424+259.639+88.8585+263.963+88.8585+269.298C88.8585+274.632+84.6424+278.956+79.4415+278.956C74.2406+278.956+70.0244+274.632+70.0244+269.298Z" fill="#141414" stroke-linecap="round" opacity="1" stroke-linejoin="round"/>
<path stroke="#ffffff" stroke-width="0.57" d="M171.931+316.141C171.931+316.743+172.468+317.231+173.129+317.231C173.791+317.231+174.327+316.743+174.327+316.141C174.327+315.54+173.791+315.052+173.129+315.052C172.468+315.052+171.931+315.54+171.931+316.141Z" fill="#141414" stroke-linecap="round" opacity="1" stroke-linejoin="round"/>
<path stroke="#ffffff" stroke-width="0.57" d="M87.4098+388.58C87.4098+388.58+87.5179+388.58+87.6512+388.58C87.7846+388.58+87.8927+388.58+87.8927+388.58C87.8927+388.58+87.7846+388.58+87.6512+388.58C87.5179+388.58+87.4098+388.58+87.4098+388.58Z" fill="#141414" stroke-linecap="round" opacity="1" stroke-linejoin="round"/>
<path stroke="#ffffff" stroke-width="9.17445" d="M373.458-303.58L386.12-303.58L386.12-282.455L373.458-282.455L373.458-303.58Z" fill="#141414" stroke-linecap="round" opacity="1" stroke-linejoin="round"/>
<text x="0" font-family="Helvetica" y="0" text-anchor="start" vectornator:text="Text" fill="#ffffff" font-size="24" vectornator:width="20" fill-opacity="0" transform="matrix(1 0 0 1 178.031 520.283)" opacity="1">
<tspan x="0" y="23" textLength="12">
T</tspan>
<tspan x="0" y="52" textLength="13.3477">
e</tspan>
</text>
<text x="0" font-family="Helvetica" y="0" text-anchor="start" vectornator:text="Text" fill="#ffffff" font-size="24" vectornator:width="20" fill-opacity="0" transform="matrix(1 0 0 1 782.354 -343.51)" opacity="1"/>
<text stroke="#ffffff" stroke-width="0.680422" x="0" font-family="Noteworthy-Light" y="0" fill="#ffffff" stroke-linecap="round" font-size="107" opacity="1" text-anchor="start" transform="matrix(1 0 0 1 198.031 389.343)" stroke-linejoin="round" vectornator:width="795.599" vectornator:text="Abc&#x20;pup">
<tspan x="0" y="137" textLength="328.49">
Abc pup</tspan>
</text>
<text x="0" font-family="Helvetica" y="0" text-anchor="start" vectornator:text="Text" fill="#ffffff" font-size="24" vectornator:width="20" fill-opacity="0" transform="matrix(1 0 0 1 668.142 942.754)" opacity="1"/>
<path stroke="#ffffff" stroke-opacity="0.69697" stroke-width="2.30998" d="M614.496+143.942L615.629+117.148L600.515+110.884L615.629+110.188L618.841+83.3942L619.975+109.145L633.767+113.32L620.164+117.148L614.496+143.942Z" fill="none" stroke-linecap="round" opacity="1" stroke-linejoin="round"/>
<path stroke="#ffffff" stroke-opacity="0.69697" stroke-width="2.30998" d="M64.7697+370.609L66.184+347.147L47.3268+341.662L66.184+341.052L70.1911+317.59L71.6054+340.138L88.8125+343.795L71.8411+347.147L64.7697+370.609Z" fill="none" stroke-linecap="round" opacity="1" stroke-linejoin="round"/>
<path stroke="#ffffff" stroke-opacity="0.69697" stroke-width="2.30998" d="M126.768+212.63L127.69+197.343L115.403+193.77L127.69+193.373L130.301+178.086L131.222+192.777L142.433+195.159L131.376+197.343L126.768+212.63Z" fill="none" stroke-linecap="round" opacity="1" stroke-linejoin="round"/>
<path stroke="#ffffff" stroke-opacity="0.69697" stroke-width="2.30998" d="M141.739+259.957L142.661+244.67L130.374+241.097L142.661+240.7L145.271+225.413L146.193+240.104L157.404+242.486L146.346+244.67L141.739+259.957Z" fill="none" stroke-linecap="round" opacity="1" stroke-linejoin="round"/>
<path stroke="#ffffff" stroke-opacity="0.69697" stroke-width="2.30998" d="M634.377+425.387L635.575+405.524L619.61+400.881L635.575+400.365L638.967+380.502L640.165+399.591L654.732+402.686L640.364+405.524L634.377+425.387Z" fill="none" stroke-linecap="round" opacity="1" stroke-linejoin="round"/>
<path stroke="#ffffff" stroke-opacity="0.69697" stroke-width="2.30998" d="M650.755+285.098C650.755+280.776+654.725+277.273+659.623+277.273C664.521+277.273+668.492+280.776+668.492+285.098C668.492+289.42+664.521+292.923+659.623+292.923C654.725+292.923+650.755+289.42+650.755+285.098Z" fill="none" stroke-linecap="round" opacity="1" stroke-linejoin="round"/>
<path stroke="#ffffff" stroke-opacity="0.69697" stroke-width="2.30998" d="M648.668+636.701C648.668+636.413+649.135+636.179+649.711+636.179C650.288+636.179+650.755+636.413+650.755+636.701C650.755+636.989+650.288+637.223+649.711+637.223C649.135+637.223+648.668+636.989+648.668+636.701Z" fill="none" stroke-linecap="round" opacity="1" stroke-linejoin="round"/>
<path stroke="#ffffff" stroke-opacity="0.69697" stroke-width="2.30998" d="M662.232+164.071C662.232+149.378+674.377+137.466+689.358+137.466C704.34+137.466+716.485+149.378+716.485+164.071C716.485+178.765+704.34+190.676+689.358+190.676C674.377+190.676+662.232+178.765+662.232+164.071Z" fill="none" stroke-linecap="round" opacity="1" stroke-linejoin="round"/>
<path stroke="#ffffff" stroke-opacity="0.69697" stroke-width="2.30998" d="M618.411+166.158C618.411+164.717+647.84+163.55+684.141+163.55C720.443+163.55+749.871+164.717+749.871+166.158C749.871+167.599+720.443+168.766+684.141+168.766C647.84+168.766+618.411+167.599+618.411+166.158Z" fill="none" stroke-linecap="round" opacity="1" stroke-linejoin="round"/>
<path stroke="#ffffff" stroke-opacity="0.69697" stroke-width="2.30998" d="M627.802+806.243C627.802+804.514+628.969+803.113+630.41+803.113C631.85+803.113+633.018+804.514+633.018+806.243C633.018+807.971+631.85+809.373+630.41+809.373C628.969+809.373+627.802+807.971+627.802+806.243Z" fill="none" stroke-linecap="round" opacity="1" stroke-linejoin="round"/>
<path stroke="#ffffff" stroke-opacity="0.69697" stroke-width="2.30998" d="M660.145+73.823C660.145+69.7895+662.947+66.5197+666.405+66.5197C669.862+66.5197+672.665+69.7895+672.665+73.823C672.665+77.8565+669.862+81.1263+666.405+81.1263C662.947+81.1263+660.145+77.8565+660.145+73.823Z" fill="none" stroke-linecap="round" opacity="1" stroke-linejoin="round"/>
<path stroke="#ffffff" stroke-opacity="0.69697" stroke-width="2.30998" d="M129.088+101.993C129.088+97.3833+132.592+93.6463+136.913+93.6463C141.235+93.6463+144.738+97.3833+144.738+101.993C144.738+106.603+141.235+110.34+136.913+110.34C132.592+110.34+129.088+106.603+129.088+101.993Z" fill="none" stroke-linecap="round" opacity="1" stroke-linejoin="round"/>
<path stroke="#ffffff" stroke-opacity="0.69697" stroke-width="2.30998" d="M215.685+35.7414C215.685+33.1484+217.787+31.0464+220.38+31.0464C222.973+31.0464+225.075+33.1484+225.075+35.7414C225.075+38.3343+222.973+40.4364+220.38+40.4364C217.787+40.4364+215.685+38.3343+215.685+35.7414Z" fill="none" stroke-linecap="round" opacity="1" stroke-linejoin="round"/>
<path stroke="#ffffff" stroke-opacity="0.69697" stroke-width="2.30998" d="M566.245+400.386C566.245+396.353+568.58+393.083+571.462+393.083C574.343+393.083+576.678+396.353+576.678+400.386C576.678+404.42+574.343+407.69+571.462+407.69C568.58+407.69+566.245+404.42+566.245+400.386Z" fill="none" stroke-linecap="round" opacity="1" stroke-linejoin="round"/>
<path stroke="#ffffff" stroke-opacity="0.69697" stroke-width="2.30998" d="M154.128+382.65C154.128+380.921+157.165+379.52+160.91+379.52C164.655+379.52+167.692+380.921+167.692+382.65C167.692+384.378+164.655+385.78+160.91+385.78C157.165+385.78+154.128+384.378+154.128+382.65Z" fill="none" stroke-linecap="round" opacity="1" stroke-linejoin="round"/>
<path stroke="#ffffff" stroke-opacity="0.69697" stroke-width="2.30998" d="M672.665+347.698C672.665+347.41+672.898+347.176+673.186+347.176C673.475+347.176+673.708+347.41+673.708+347.698C673.708+347.986+673.475+348.22+673.186+348.22C672.898+348.22+672.665+347.986+672.665+347.698Z" fill="none" stroke-linecap="round" opacity="1" stroke-linejoin="round"/>
<path stroke="#ffffff" stroke-opacity="0.69697" stroke-width="2.30998" d="M707.095+265.275C707.095+260.953+709.197+257.45+711.79+257.45C714.383+257.45+716.485+260.953+716.485+265.275C716.485+269.596+714.383+273.1+711.79+273.1C709.197+273.1+707.095+269.596+707.095+265.275Z" fill="none" stroke-linecap="round" opacity="1" stroke-linejoin="round"/>
<path stroke="#ffffff" stroke-opacity="0.69697" stroke-width="2.30998" d="M669.535+744.164C669.535+743.876+670.002+743.643+670.578+743.643C671.154+743.643+671.621+743.876+671.621+744.164C671.621+744.452+671.154+744.686+670.578+744.686C670.002+744.686+669.535+744.452+669.535+744.164Z" fill="none" stroke-linecap="round" opacity="1" stroke-linejoin="round"/>
<path stroke="#ffffff" stroke-opacity="0.69697" stroke-width="2.30998" d="M118.655+34.698C118.655+30.9526+122.392+27.9164+127.002+27.9164C131.612+27.9164+135.348+30.9526+135.348+34.698C135.348+38.4434+131.612+41.4797+127.002+41.4797C122.392+41.4797+118.655+38.4434+118.655+34.698Z" fill="none" stroke-linecap="round" opacity="1" stroke-linejoin="round"/>
</g>
<g id="Layer 2" vectornator:layerName="Layer 2">
<path stroke="#ffffff" stroke-width="1" d="M624.223+243.323L626.155+243.323L626.155+244.771L624.223+244.771L624.223+243.323Z" fill="url(#LinearGradient)" stroke-linecap="round" opacity="1" stroke-linejoin="round"/>
<path stroke="#ffffff" stroke-width="13.4733" d="M368.774+37.848L274.396+76.8792C206.676+104.881+174.493+182.489+202.495+250.208L238.733+337.893C266.735+405.613+344.342+437.796+412.062+409.793L506.451+370.791C574.171+342.789+606.354+265.182+578.352+197.462L542.114+109.778C514.112+42.0577+436.494+9.84576+368.774+37.848Z" fill="url(#LinearGradient_2)" stroke-linecap="round" opacity="1" stroke-linejoin="round"/>
<path stroke="#ffffff" stroke-width="13.4733" d="M527.351+129.275C519.082+129.227+495.422+135.775+489.226+145.4C482.145+156.4+488.342+137.354+486.445+138.15C484.549+138.946+474.832+153.992+472.289+154.056C469.746+154.121+461.541+170.027+457.82+171.244C454.099+172.461+459.679+186.063+467.695+191.681C475.712+197.3+440.424+203.637+438.78+205.259C437.135+206.882+411.068+197.862+408.539+197.806C406.01+197.751+395.006+192.063+393.351+190.119C391.696+188.175+390.59+186.149+389.726+184.213C388.863+182.276+397.465+181.096+396.633+178.056C395.8+175.017+394.422+170.789+392.695+166.713C390.968+162.636+371.366+149.724+380.226+153.994C389.087+158.264+390.072+150.162+389.414+146.588C388.756+143.013+374.359+136.605+369.508+134.619C364.656+132.633+358.151+131.173+350.914+129.713C349.483+129.424+350.841+130.748+352.539+132.9C354.236+135.052+356.26+138.02+356.164+141.056C356.068+144.093+357.234+147.273+357.758+150.088C358.282+152.902+358.165+155.36+355.508+156.963C352.851+158.566+351.144+157.244+349.226+155.088C347.309+152.931+345.184+149.952+341.695+148.213C338.207+146.473+333.362+145.983+329.383+145.931C325.403+145.879+322.289+146.244+322.289+146.244C322.289+146.244+325.401+148.936+329.133+152.806C332.865+156.676+337.231+161.729+339.789+166.556C340.508+167.912+341.036+169.241+341.414+170.525C341.785+170.401+342.094+170.141+342.476+170.056C343.834+169.27+345.329+168.718+347.101+168.556C348.499+168.429+349.794+168.592+351.008+168.931C351.193+168.963+351.35+168.953+351.539+168.994C355.025+169.742+357.709+172.069+359.101+175.056C359.926+176.827+360.204+178.53+360.195+180.275C360.185+182.203+359.788+184.151+359.164+185.931C358.867+186.78+358.521+187.571+358.101+188.338C357.783+188.92+357.425+189.489+356.976+190.056C355.999+191.291+354.83+192.34+353.008+193.15C347.57+195.567+341.009+193.641+337.57+189.056C336.21+187.243+335.595+185.281+335.414+183.338C335.102+182.554+335.065+181.706+334.945+180.869C330.53+182.05+307.857+170.429+297.765+169.04C296.784+168.905+291.437+171.589+290.521+171.454C291.446+172.164+284.416+182.07+283.277+181.596C277.482+179.181+315.472+193.91+310.789+196.838C302.929+201.75+291.339+199.993+282.789+194.838C281.784+197.507+281.22+202.742+280.195+205.65C279.072+208.836+276.681+208.307+276.258+211.431C275.835+214.556+274.226+225.351+279.195+222.838C304.852+209.859+290.658+231.304+294.664+231.275C298.67+231.246+297.408+226.377+300.601+227.056C303.795+227.735+312.327+219.066+313.039+225.65C313.751+232.234+322.647+224.393+326.57+226.713C330.494+229.032+328.657+235.073+326.258+240.556C323.859+246.039+323.566+252.986+325.292+253.069C329.618+253.278+328.115+262.419+328.672+264.659C329.229+266.9+323.91+275.987+327.223+279.147C330.537+282.307+337.1+283.407+337.945+300.088C338.79+316.768+328.151+335.355+340.726+335.744C353.301+336.132+346.9+324.718+352.289+311.181C357.678+297.645+362.808+293.798+367.351+296.15C371.895+298.502+377.096+299.574+379.539+313.025C381.982+326.477+360.545+351.586+385.789+342.9C388.752+341.88+389.299+328.725+394.008+316.275C398.717+303.825+407.725+293.386+413.07+293.244C418.415+293.102+423.809+283.493+423.809+283.493C423.809+283.493+431.103+292.406+433.539+291.869C435.975+291.331+442.577+303.235+447.945+316.931C453.314+330.627+437.814+352.552+452.784+345.308C457.971+342.798+459.02+325.711+460.789+309.15C462.558+292.59+473.296+289.811+476.57+288.056C479.844+286.302+487.221+291.644+492.351+310.775C497.482+329.906+475.482+348.206+494.799+346.274C500.327+345.721+505.154+325.31+507.838+306.191C510.522+287.071+510.673+262.206+511.758+259.494C512.842+256.781+513.962+248.88+515.726+239.713C517.491+230.545+511.693+221.751+510.789+216.681C509.884+211.612+530.669+202.996+526.57+197.213C522.471+191.429+528.35+177.764+525.914+174.494C523.478+171.224+518.125+170.173+519.32+156.963C520.515+143.752+533.511+132.004+529.851+129.713C529.394+129.426+528.533+129.282+527.351+129.275Z" fill="#ffffff" stroke-linecap="round" opacity="1" stroke-linejoin="round"/>
<path stroke="#ffffff" stroke-width="9.17445" d="M240.779+184.695C240.779+138.815+282.296+101.622+333.508+101.622C384.721+101.622+426.237+138.815+426.237+184.695C426.237+230.575+384.721+267.768+333.508+267.768C282.296+267.768+240.779+230.575+240.779+184.695Z" fill="#ffffff" stroke-linecap="round" fill-opacity="0" opacity="1" stroke-linejoin="round"/>
<path stroke="#ffffff" stroke-width="9.17445" d="M265.409+152.62C264.926+152.781+264.181+152.645+263.96+153.103C261.855+157.464+260.253+162.056+258.648+166.625C256.264+173.41+256.807+181.838+257.682+188.84C258.004+191.415+258.221+194.006+258.648+196.567C258.861+197.847+258.947+199.145+259.131+200.43C259.182+200.786+259.974+201.396+259.614+201.396C259.158+201.396+258.97+200.752+258.648+200.43" fill="#ffffff" stroke-linecap="round" fill-opacity="0" opacity="1" stroke-linejoin="round"/>
</g>
</svg>
